<mxfile host="app.diagrams.net" modified="2023-11-27T05:38:19.765Z" agent="Mozilla/5.0 (Windows NT 10.0; Win64; x64) AppleWebKit/537.36 (KHTML, like Gecko) Chrome/119.0.0.0 Safari/537.36 Edg/119.0.0.0" etag="607xCfwsx7kU4UN0u373" version="22.1.3" type="github">
  <diagram name="第 1 页" id="13l5S5YFXI5lpZrUWEiC">
    <mxGraphModel dx="1216" dy="764" grid="1" gridSize="10" guides="1" tooltips="1" connect="1" arrows="1" fold="1" page="1" pageScale="1" pageWidth="827" pageHeight="1169" math="0" shadow="0">
      <root>
        <mxCell id="0" />
        <mxCell id="1" parent="0" />
        <mxCell id="wiVu-uIKytIcO9cskcc3-4" style="edgeStyle=orthogonalEdgeStyle;rounded=0;orthogonalLoop=1;jettySize=auto;html=1;exitX=1;exitY=0.5;exitDx=0;exitDy=0;curved=1;" edge="1" parent="1" source="wiVu-uIKytIcO9cskcc3-1" target="wiVu-uIKytIcO9cskcc3-3">
          <mxGeometry relative="1" as="geometry" />
        </mxCell>
        <mxCell id="wiVu-uIKytIcO9cskcc3-1" value="windivert_outbound_network_v4_classify" style="rounded=0;whiteSpace=wrap;html=1;" vertex="1" parent="1">
          <mxGeometry x="120" y="170" width="230" height="30" as="geometry" />
        </mxCell>
        <mxCell id="wiVu-uIKytIcO9cskcc3-6" style="edgeStyle=orthogonalEdgeStyle;rounded=0;orthogonalLoop=1;jettySize=auto;html=1;exitX=1;exitY=0.5;exitDx=0;exitDy=0;entryX=0;entryY=0.5;entryDx=0;entryDy=0;curved=1;" edge="1" parent="1" source="wiVu-uIKytIcO9cskcc3-2" target="wiVu-uIKytIcO9cskcc3-3">
          <mxGeometry relative="1" as="geometry" />
        </mxCell>
        <mxCell id="wiVu-uIKytIcO9cskcc3-2" value="windivert_outbound_network_v6_classify" style="rounded=0;whiteSpace=wrap;html=1;" vertex="1" parent="1">
          <mxGeometry x="120" y="210" width="230" height="30" as="geometry" />
        </mxCell>
        <mxCell id="wiVu-uIKytIcO9cskcc3-3" value="windivert_network_classify" style="rounded=0;whiteSpace=wrap;html=1;" vertex="1" parent="1">
          <mxGeometry x="414" y="190" width="170" height="30" as="geometry" />
        </mxCell>
      </root>
    </mxGraphModel>
  </diagram>
</mxfile>
